<?xml version="1.0" standalone="no"?><!DOCTYPE svg PUBLIC "-//W3C//DTD SVG 1.1//EN" "http://www.w3.org/Graphics/SVG/1.1/DTD/svg11.dtd"><svg t="1767684239123" class="icon" viewBox="0 0 1024 1024" version="1.1" xmlns="http://www.w3.org/2000/svg" p-id="17384" xmlns:xlink="http://www.w3.org/1999/xlink" width="128" height="128"><path d="M259.62461914 697.44042969c-24.046875 0-45.85253906-19.69628906-45.85253907-43.58496094s19.69628906-43.69042969 45.87890626-43.69042969c26.28808594 0 46.06347655 19.69628906 46.06347656 43.6640625s-21.85839844 43.58496094-45.87890625 43.58496094z m562.91308594-237.75292969c-4.74609375-34.88378906-26.3671875-63.28125001-54.84375-85.08691406l-11.07421875-8.78027344-8.93847656 10.88964844c-17.37597655 19.69628906-24.2578125 54.60644531-22.1484375 80.68359375 2.109375 19.74902345 8.4375 39.36621094 19.48535156 54.6328125-8.93847655 4.56152345-19.95996094 8.78027344-28.4765625 13.26269531-20.0390625 6.56542969-39.52441406 8.78027344-59.0625 8.78027344H93.56407227l-2.109375 12.99902343a245.42578125 245.42578125 0 0 0 19.74902343 124.45312501l8.56933594 15.29296875v2.109375c52.734375 87.30175781 146.6015625 126.5625 248.82714844 126.5625 196.67285156 0 357.9609375-85.08691406 434.42578125-268.33886719 50.09765625 2.18847655 100.69628906-10.88964844 124.453125-58.93066407l6.328125-10.88964843-10.546875-6.56542969c-28.4765625-17.37597655-67.5-19.69628906-100.1953125-10.88964844l-0.6328125 0.07910156z m-281.52246094-34.88378906h-85.35058594v85.08691406h85.4296875v-85.13964845l-0.07910156 0.10546876z m0-106.97167969h-85.35058594v85.08691406h85.4296875V317.9375l-0.07910156-0.10546875z m0-109.13378906h-85.35058594v85.08691406h85.4296875V208.69824219h-0.07910156z m104.41406249 216.10546875H560.55333008v85.08691406h85.08691406v-85.13964845l-0.23730469 0.10546876z m-316.35351561 0H244.25254883v85.08691406h85.13964844v-85.13964845l-0.34277344 0.10546876z m106.5234375 0h-84.375v85.08691406h84.87597656v-85.13964845l-0.52734375 0.10546876z m-211.9921875 0H139.36387695v85.08691406h85.35058594v-85.13964845l-1.0546875 0.10546876z m211.9921875-106.97167969h-84.375v85.08691406h84.87597656V317.9375l-0.52734375-0.10546875z m-107.05078125 0H244.38438477v85.08691406h84.82324218V317.9375l-0.55371093-0.10546875z" fill="#1890ff" p-id="17385"></path></svg>