<?xml version="1.0" standalone="no"?><!DOCTYPE svg PUBLIC "-//W3C//DTD SVG 1.1//EN" "http://www.w3.org/Graphics/SVG/1.1/DTD/svg11.dtd"><svg t="1767684313856" class="icon" viewBox="0 0 1024 1024" version="1.1" xmlns="http://www.w3.org/2000/svg" p-id="25864" xmlns:xlink="http://www.w3.org/1999/xlink" width="128" height="128"><path d="M512 512m-512 0a512 512 0 1 0 1024 0 512 512 0 1 0-1024 0Z" fill="#FFFFFF" p-id="25865"></path><path d="M512 0c282.766222 0 512 229.233778 512 512s-229.233778 512-512 512S0 794.766222 0 512 229.233778 0 512 0zM222.890667 797.980444a15.132444 15.132444 0 0 0-11.093334 4.551112 14.819556 14.819556 0 0 0-4.551111 10.951111 14.904889 14.904889 0 0 0 4.551111 10.865777 15.075556 15.075556 0 0 0 11.093334 4.608 15.729778 15.729778 0 0 0 11.377777-4.608 14.648889 14.648889 0 0 0 4.721778-10.865777 14.705778 14.705778 0 0 0-4.693333-10.922667 15.701333 15.701333 0 0 0-11.377778-4.551111z m532.906666-168.704h-141.653333v20.821334h58.936889v175.701333h23.893333v-175.701333h58.823111v-20.821334z m-450.929777 0H273.834667v196.551112h23.893333v-146.944c-0.085333-11.036444-0.455111-18.375111-1.109333-22.044445h0.853333c1.706667 4.266667 3.868444 8.419556 6.4 12.316445l105.386667 156.643555h29.013333v-196.522667h-23.779556v138.410667c0 13.624889 0.483556 23.267556 1.422223 28.899556h-0.568889a191.914667 191.914667 0 0 0-8.248889-13.141334l-102.229333-154.168889z m282.112 0h-103.509334v196.551112h108.231111V804.977778h-84.309333v-68.664889h73.756444v-20.821333h-73.756444v-65.393778h79.587556v-20.821334z m-162.816-79.530666c-8.817778 0-15.872 2.673778-21.105778 8.078222-5.233778 5.404444-7.850667 12.515556-7.850667 21.276444 0 7.822222 2.389333 14.193778 7.168 19.114667 4.892444 5.12 11.320889 7.651556 19.285333 7.651556 5.888 0 10.979556-1.251556 15.246223-3.783111v-8.135112a23.011556 23.011556 0 0 1-13.681778 4.608 18.033778 18.033778 0 0 1-13.767111-5.432888c-3.413333-3.640889-5.12-8.561778-5.12-14.791112 0-6.485333 1.877333-11.690667 5.603555-15.587555a18.147556 18.147556 0 0 1 13.824-5.688889c4.721778 0 9.102222 1.393778 13.255111 4.209778v-8.817778a29.240889 29.240889 0 0 0-12.856888-2.702222z m87.552 0c-8.419556 0-15.160889 2.360889-20.195556 7.111111-5.404444 5.091556-8.135111 12.259556-8.135111 21.589333 0 8.135111 2.389333 14.705778 7.168 19.683556 4.864 5.148444 11.52 7.736889 19.854222 7.736889 8.476444 0 15.217778-2.56 20.195556-7.736889 5.006222-5.12 7.509333-12.003556 7.509333-20.508445 0-8.704-2.332444-15.502222-6.968889-20.48-4.664889-4.920889-11.150222-7.395556-19.427555-7.395555z m56.092444 0a21.731556 21.731556 0 0 0-14.136889 4.408889 13.710222 13.710222 0 0 0-5.489778 11.093333c0 3.982222 1.194667 7.196444 3.527111 9.671111 1.991111 2.076444 5.290667 4.096 9.955556 6.058667 4.522667 1.905778 7.566222 3.555556 9.102222 4.920889a6.513778 6.513778 0 0 1 2.360889 5.176889c0 4.977778-3.527111 7.480889-10.581333 7.480888a22.897778 22.897778 0 0 1-14.449778-5.12v9.187556c3.925333 2.161778 8.533333 3.242667 13.795556 3.242667 6.428444 0 11.52-1.564444 15.246222-4.721778 3.413333-2.872889 5.12-6.513778 5.12-10.894222a12.970667 12.970667 0 0 0-4.096-9.813334 32.455111 32.455111 0 0 0-10.24-5.944889 31.544889 31.544889 0 0 1-8.362667-4.437333 7.025778 7.025778 0 0 1-2.247111-5.546667c0-2.190222 0.910222-3.982222 2.673778-5.404444a11.264 11.264 0 0 1 7.111111-2.048c4.721778 0 8.931556 1.251556 12.600889 3.811556v-8.618667a27.192889 27.192889 0 0 0-11.889778-2.531556z m51.569778 0c-8.448 0-15.160889 2.360889-20.195556 7.111111-5.404444 5.091556-8.135111 12.259556-8.135111 21.589333 0 8.135111 2.389333 14.705778 7.168 19.683556 4.835556 5.148444 11.491556 7.736889 19.854222 7.736889 8.476444 0 15.217778-2.56 20.195556-7.736889 5.006222-5.12 7.509333-12.003556 7.509333-20.508445 0-8.704-2.360889-15.502222-6.968889-20.48-4.664889-4.920889-11.121778-7.395556-19.427555-7.395555z m86.755555-14.535111l-8.903111 2.787555v13.056h-9.557333v7.253334h9.557333v31.658666c0 10.524444 4.835556 15.815111 14.535111 15.815111a17.351111 17.351111 0 0 0 8.362667-1.735111v-7.310222a9.671111 9.671111 0 0 1-5.745778 1.706667c-2.986667 0-5.063111-0.739556-6.371555-2.275556-1.28-1.507556-1.877333-4.067556-1.877334-7.651555v-30.208h13.994667v-7.253334h-13.994667v-15.843555z m-27.591111-11.008a17.436444 17.436444 0 0 0-12.003555 4.323555c-3.811556 3.328-5.688889 7.964444-5.688889 13.852445v8.675555h-9.443556v7.253334h9.443556v46.279111h8.931555v-46.279111h13.027556v-7.253334h-13.027556v-8.248889c0-7.566222 3.072-11.377778 9.301334-11.377777a12.231111 12.231111 0 0 1 5.916444 1.422222v-7.736889a18.090667 18.090667 0 0 0-6.428444-0.910222z m-392.590222 5.404444h-12.060444v74.979556h8.817777v-50.232889c0-6.769778-0.170667-11.633778-0.455111-14.648889 0.995556 3.527111 1.763556 6.087111 2.531556 7.68l26.595555 57.173333h4.465778l26.538667-57.6c0.711111-1.479111 1.479111-3.896889 2.332444-7.253333-0.284444 5.717333-0.568889 10.552889-0.568889 14.535111v50.346667h9.159111v-74.979556h-11.434666l-24.405334 52.053333c-1.336889 3.043556-2.588444 6.087111-3.726222 9.187556h-0.398222a65.592889 65.592889 0 0 0-3.527111-8.96l-23.893333-52.280889z m95.459556 21.447111h-8.874667v53.532445h8.874667v-53.532445z m92.615111-0.938666a13.653333 13.653333 0 0 0-8.533334 2.929777 18.688 18.688 0 0 0-5.973333 9.045334h-0.227556v-11.036445h-8.903111v53.504h8.903111v-27.278222c0-6.200889 1.365333-11.093333 4.181334-14.592a11.150222 11.150222 0 0 1 9.102222-4.693333c2.986667 0 5.233778 0.568889 6.826667 1.735111l-0.028445-8.874667a14.876444 14.876444 0 0 0-5.347555-0.739555z m144.696889 6.940444c5.603556 0 9.955556 1.706667 13.084444 5.176889 3.214222 3.584 4.835556 8.817778 4.835556 15.672889 0 6.542222-1.507556 11.605333-4.522667 15.160889-3.072 3.640889-7.537778 5.489778-13.397333 5.489777a17.720889 17.720889 0 0 1-13.539556-5.404444c-3.356444-3.612444-5.006222-8.647111-5.006222-15.047111 0-6.826667 1.735111-12.088889 5.233778-15.815111a17.550222 17.550222 0 0 1 13.312-5.233778z m-107.662223 0c5.603556 0 9.955556 1.706667 13.084445 5.176889 3.214222 3.584 4.835556 8.817778 4.835555 15.672889 0 6.542222-1.507556 11.605333-4.522666 15.160889-3.072 3.640889-7.537778 5.489778-13.368889 5.489777a17.550222 17.550222 0 0 1-13.539556-5.404444c-3.356444-3.612444-5.034667-8.647111-5.034666-15.047111 0-6.826667 1.763556-12.088889 5.262222-15.815111a17.493333 17.493333 0 0 1 13.283555-5.233778z m-133.973333-30.72a5.774222 5.774222 0 0 0-4.096 1.592889 5.205333 5.205333 0 0 0-1.706667 3.925333 5.233778 5.233778 0 0 0 1.706667 4.039111c1.080889 1.024 2.56 1.592889 4.096 1.564445a5.745778 5.745778 0 0 0 4.152889-1.621334 5.262222 5.262222 0 0 0 1.706667-3.982222c0-1.536-0.568889-2.844444-1.706667-3.925333a5.745778 5.745778 0 0 0-4.152889-1.592889z m449.024-306.915556l-46.051556 0.170667a209.635556 209.635556 0 0 0-30.748444 2.474667c-25.884444 4.096-47.701333 15.900444-63.402667 38.4-9.898667 14.250667-15.416889 30.577778-20.48 47.160889a26814.464 26814.464 0 0 1-39.623111 129.308444c-2.360889 7.623111-5.546667 14.990222-8.334222 22.471111h-1.137778c-0.483556-1.308444-1.052444-2.645333-1.422222-4.039111-4.636444-18.432-9.472-36.835556-13.824-55.324444-7.623111-32.369778-14.364444-64.938667-25.201778-96.369778-5.404444-15.587556-11.776-30.663111-20.707555-44.487111-14.364444-22.186667-33.564444-33.848889-60.017778-33.450667-49.408 0.711111-98.787556 0.199111-148.195556 0.227556-2.275556 0-4.608 0.170667-6.912 0.455111-13.937778 1.621333-26.197333 7.822222-37.745777 15.644444-22.727111 15.502222-40.874667 35.982222-57.344 58.168889-24.149333 32.597333-43.320889 68.295111-59.591112 105.728a752.924444 752.924444 0 0 0-38.343111 112.213333c-1.422222 5.603556-1.194667 6.058667 4.352 6.001778 23.210667-0.199111 46.392889-0.284444 69.575111-0.796444a104.647111 104.647111 0 0 0 44.8-11.264c24.120889-12.088889 39.537778-32.568889 48.156445-58.311111 8.988444-26.88 16.554667-54.272 24.832-81.408 2.275556-7.395556 3.612444-15.559111 7.68-21.788445a422.968889 422.968889 0 0 1 50.176-63.715555l3.356444-3.271111c0.625778 1.592889 1.166222 2.616889 1.450667 3.726222 4.352 17.152 8.903111 34.247111 12.913778 51.484444 8.533333 36.778667 15.985778 73.898667 29.297778 109.312 7.310222 19.399111 16.213333 37.774222 31.146666 52.224 10.410667 10.097778 22.698667 15.786667 37.034667 15.815111 48.213333 0.056889 96.426667-0.142222 144.668444 0.142223 13.596444 0.056889 25.6-4.266667 36.807111-11.662223 16.440889-10.808889 29.354667-25.6 41.614223-41.073777 16.64-20.963556 31.288889-43.406222 44.8-66.588445 21.048889-36.124444 41.528889-72.675556 61.923555-109.226667 11.719111-20.992 22.897778-42.325333 34.275556-63.544888 0.654222-1.194667 1.080889-2.56 1.820444-4.380445-2.304-0.142222-3.953778-0.312889-5.575111-0.312889-30.691556-0.028444-61.383111-0.256-92.074667 0.056889z" fill="#1D39C4" p-id="25866"></path></svg>