<?xml version="1.0" standalone="no"?><!DOCTYPE svg PUBLIC "-//W3C//DTD SVG 1.1//EN" "http://www.w3.org/Graphics/SVG/1.1/DTD/svg11.dtd"><svg t="1767684268344" class="icon" viewBox="0 0 1024 1024" version="1.1" xmlns="http://www.w3.org/2000/svg" p-id="20671" xmlns:xlink="http://www.w3.org/1999/xlink" width="128" height="128"><path d="M144.02927 553.933865c1.470096 30.32319 31.766963 16.29345 45.488733 6.812189 13.021599-9.002197 16.833055-1.52274 17.978071-19.290234 0.744919-11.669953 2.092616-23.350435 1.429297-35.066452-19.695596-1.784646-41.117929 2.904656-57.266607 14.636467-8.317819 6.046212-23.911098 25.33513-7.629494 32.90803" fill="#F6D2A2" p-id="20672"></path><path d="M144.02927 553.933865c4.411603-1.645138 9.083796-2.807264 12.076632-6.796395" fill="#C6B198" p-id="20673"></path><path d="M214.039777 192.666755C97.95092 160.02063 184.274618 12.333273 277.496052 73.079676l-63.456275 119.587079z m515.777185-130.670046c91.89611-64.54075 174.924267 81.078997 68.138997 117.714253L729.816962 62.001973v-0.003948z m0 0" fill="#6AD7E5" p-id="20674"></path><path d="M749.584944 927.143364c23.339906 14.441682 66.000317 58.108918 30.989142 79.285138-33.642421 30.806202-52.469384-33.810883-81.998959-42.763067 12.718893-17.273952 28.835984-33.015952 51.009817-36.522071z m-416.982023 49.348885c-27.396159 4.241825-42.81308 28.954434-65.650232 41.51013-21.526306 12.832079-29.757262-4.108897-31.694576-7.547894-3.373192-1.537217-3.090228 1.429296-8.298078-3.810141-19.946973-31.487947 20.7906-54.505407 42.002355-70.143433 29.546684-5.975142 48.064361 19.642952 63.640531 39.991338z m0 0" fill="#F6D2A2" p-id="20675"></path><path d="M218.883064 151.877854c-15.31558-8.103293-26.553849-19.104662-17.181825-36.820828 8.673169-16.398739 24.784996-14.615409 40.10584-6.513432L218.883064 151.87917z m554.874884-15.40376c15.314264-8.101977 26.548584-19.103346 17.180509-36.819511-8.671853-16.39479-24.784996-14.616725-40.104524-6.513432l22.924015 43.332943z m0 0" p-id="20676"></path><path d="M879.184993 550.077661c-1.474044 30.327138-31.766963 16.297398-45.487417 6.817453-13.028179-9.002197-16.831739-1.521424-17.978071-19.288917-0.750183-11.671269-2.092616-23.351751-1.429297-35.073033 19.690332-1.78333 41.112665 2.909921 57.265291 14.641731 8.313871 6.046212 23.911098 25.33513 7.629494 32.902766" fill="#F6D2A2" p-id="20677"></path><path d="M879.184993 550.077661c-4.408971-1.639874-9.083796-2.802-12.076632-6.791131" fill="#C6B198" p-id="20678"></path><path d="M344.46371 132.290179c-8.837683-5.5224-19.720602-5.5224-28.55302 0-8.831102 5.527665-14.271904 15.736735-14.271904 26.784168 0 11.048749 5.439485 21.255187 14.271904 26.780219 8.832419 5.521084 19.715338 5.521084 28.55302 0 8.832419-5.526349 14.271904-15.731471 14.271904-26.780219 0-11.047433-5.439485-21.257819-14.271904-26.782852z m2.097881 40.649393c-2.092616 1.424032-4.684038 1.424032-6.780602 0-2.092616-1.424032-3.367927-4.056253-3.337657-6.888523-0.030271-2.827006 1.245041-5.459227 3.337657-6.888523 2.096564-1.424032 4.687986-1.424032 6.780602 0 2.09788 1.429296 3.371875 4.061517 3.342921 6.888523 0.028954 2.83227-1.245041 5.464491-3.342921 6.888523z" p-id="20679"></path><path d="M822.561964 521.324592c-7.774266-132.269121 10.353843-267.227056-40.624388-392.385231C725.143453 17.280533 616.195813 0.658055 499.975345 0.658055 374.71583 10.569685 258.325584 39.617563 215.171632 168.154194c-41.596993 123.909186-2.195273 250.924393-7.300466 377.55398-4.30763 106.89714-32.409225 249.751739 26.940785 345.823868 50.586029 81.891037 158.862453 111.1337 248.496169 114.341062 114.110742 4.077311 252.616911-23.771591 308.04228-134.505193 52.69049-105.252001 37.890826-236.468234 31.211564-350.044635zM283.552793 176.295655C257.697799 46.546886 465.659076 22.065911 473.299099 148.931082c6.369976 105.933747-162.697599 132.969292-189.746306 27.365889z m179.274013 124.218472l42.253733-10.817114c-0.605411 19.155991-3.927274 37.69999-1.510895 56.845451-33.797722 44.526656-53.199825-15.839392-40.742838-46.028337z m82.18453 51.970577c-4.025982 7.609752-11.922646 8.411263-18.728255 11.485698-9.41414-1.474044-17.330545-7.659764-21.10515-16.461912-2.416379-19.14941 0.90022-37.693409 1.513527-56.8494l37.719732 11.572561c0.092128 15.77227 3.582453 33.472642 0.600146 50.253053zM520.488246 156.679025c-6.929323-112.445862 165.132404-142.813799 190.661002-33.108079 28.481951 122.331169-169.791436 154.406102-190.661002 33.108079z" fill="#6AD7E5" p-id="20680"></path><path d="M583.435187 124.593564c-8.68633-5.526349-19.391574-5.526349-28.075273 0-8.68633 5.521084-14.040268 15.731471-14.040268 26.780219 0 11.047433 5.352622 21.252555 14.040268 26.778904 8.683698 5.5224 19.387626 5.5224 28.075273 0 8.683698-5.526349 14.035004-15.731471 14.035004-26.778904 0-11.048749-5.351306-21.259135-14.035004-26.780219z m2.041287 40.56253c-2.046552 1.40429-4.570852 1.40429-6.616088 0-2.051817-1.402974-3.311334-3.99966-3.311334-6.805608-0.030271-2.833586 1.223983-5.460543 3.285012-6.88984 2.062345-1.424032 4.606387-1.424032 6.668732 0 2.061029 1.429296 3.316599 4.056253 3.285013 6.88984 0 2.805948-1.263466 5.402634-3.311335 6.805608z" p-id="20681"></path><path d="M467.088372 242.374938c-23.216192 1.97943-42.193192 29.587484-30.121824 51.425708 15.984164 28.924164 51.662608-2.559835 73.887768 0.390885 25.581243 0.526444 46.531092 27.042126 67.07558 4.791959 22.847681-24.74288-9.835295-48.850079-35.381003-59.626393l-75.460521 3.017841z m0 0" fill="#F6D2A2" p-id="20682"></path><path d="M464.162658 241.166749c-1.716208-40.217709 74.972243-45.246568 84.025769-11.581774 9.032467 33.591092-80.247215 41.39168-84.025769 11.581774-3.007313-23.803177 0 0 0 0z m0 0" p-id="20683"></path></svg>