<?xml version="1.0" standalone="no"?><!DOCTYPE svg PUBLIC "-//W3C//DTD SVG 1.1//EN" "http://www.w3.org/Graphics/SVG/1.1/DTD/svg11.dtd"><svg t="1767684434475" class="icon" viewBox="0 0 1024 1024" version="1.1" xmlns="http://www.w3.org/2000/svg" p-id="33890" xmlns:xlink="http://www.w3.org/1999/xlink" width="128" height="128"><path d="M0 0h1024v1024H0z" fill="#FFFFFF" p-id="33891"></path><path d="M542.592 485.376c-71.893333 2.816-149.418667-10.709333-214.741333-43.392L341.333333 420.522667c63.488 29.866667 136.32 40.106667 201.216 37.333333 0 2.346667 2.773333-43.904 6.997334-69.12h-97.578667c8.874667-101.76 40.149333-192.298667 86.826667-269.354667H247.082667v444.458667h306.688c-6.997333-26.624-11.178667-79.36-11.178667-78.464z" fill="#D0E9FB" p-id="33892"></path><path d="M571.989333 455.978667c53.205333-5.12 99.882667-19.157333 128.384-37.333334l16.810667 21.461334c-39.253333 22.869333-90.112 37.802667-145.194667 43.434666 1.408 27.52 5.589333 53.674667 12.586667 80.298667h210.090667V119.381333h-223.573334c-47.658667 72.832-74.752 154.069333-84.992 239.957334h100.352c-8.405333 32.682667-13.525333 64.896-14.464 96.64zM379.648 186.624h28.501333v65.834667h-28.501333V186.624z" fill="#00ACEC" p-id="33893"></path><path d="M616.789333 186.624h28.501334v65.834667h-28.501334z" fill="#000000" p-id="33894"></path><path d="M571.989333 455.978667c53.205333-5.12 99.882667-19.157333 128.384-37.333334l16.810667 21.461334c-39.253333 22.869333-90.112 37.802667-145.194667 43.434666 2.346667 49.493333 14.506667 98.474667 38.741334 145.621334l-24.277334 13.056c-44.373333-69.973333-52.266667-164.266667-36.864-253.44h-97.578666c12.16-138.666667 65.365333-256.298667 142.848-347.818667l20.992 18.218667c-75.605333 87.765333-117.162667 189.994667-129.749334 300.16h100.352c-8.405333 32.682667-13.525333 64.896-14.464 96.64z" fill="#000000" p-id="33895"></path><path d="M542.592 457.813333v27.562667c-71.893333 2.816-149.418667-10.709333-214.741333-43.392L341.333333 420.522667c63.488 29.866667 136.32 40.106667 201.216 37.333333z" fill="#00ACEC" p-id="33896"></path><path d="M83.669333 713.216c-13.056 0.938667-19.626667 1.408-27.989333 1.408-5.12 0-10.24 0-16.341333-0.469333H29.994667c-4.693333 0-6.997333 1.834667-6.997334 6.528 0 4.181333 2.346667 6.528 7.936 6.997333l9.813334 0.938667c15.872 1.408 17.28 2.773333 17.28 16.341333 0 1.877333-0.469333 6.528-0.469334 11.648L48.64 913.92c-1.877333 31.744-2.346667 34.56-5.12 38.272-1.450667 2.346667-5.632 4.693333-12.16 5.632l-6.058667 0.938667c-8.874667 1.877333-10.282667 3.242667-10.282666 8.405333 0 3.712 2.346667 6.058667 6.058666 6.058667H23.466667l5.589333-0.426667c6.997333-0.512 17.749333-0.981333 25.685333-0.981333s24.277333 0.469333 28.928 0.938666l6.528 0.469334 2.346667 0.469333c3.754667 0.469333 6.997333-2.816 6.997333-6.997333 0-4.693333-2.304-6.528-7.936-7.466667l-7.466666-0.938667c-17.28-1.877333-19.114667-4.693333-19.114667-23.338666 0-6.058667 0-14.506667 0.426667-20.053334l5.12-153.173333L137.386667 963.413333c1.877333 5.632 2.816 6.528 5.12 6.528 2.816 0 3.285333-0.896 5.632-6.997333l68.608-200.704 0.938666 154.965333v14.933334c0 20.053333-1.877333 23.808-14.464 25.685333l-6.058666 0.938667c-6.528 0.938667-8.874667 2.816-8.874667 7.936 0 4.181333 2.346667 6.058667 6.997333 6.528h1.877334l5.12-0.938667c6.101333-0.426667 23.808-1.408 32.213333-1.408 7.466667 0 12.16 0 18.218667 0.938667 6.058667 0.469333 10.752 0.469333 12.117333 0.469333h5.632c4.693333 0 6.997333-1.877333 6.997333-6.528 0-4.181333-2.346667-6.058667-9.813333-6.997333l-6.528-0.938667c-9.813333-0.938667-13.056-4.224-14.506667-10.752-0.896-6.528-0.896-14.464-1.365333-42.453333l-0.938667-135.381334-0.426666-19.157333c0-18.645333 0.896-20.053333 15.829333-21.930667l8.874667-0.938666c6.528-0.938667 8.405333-2.816 8.405333-7.466667 0-4.224-1.408-5.589333-6.997333-6.058667h-1.408l-5.589334 0.426667c-6.997333 0-12.629333 0.512-19.157333 0.512-6.997333 0-13.056-0.469333-25.173333-0.938667l-68.693334 199.338667-66.261333-199.808z m510.293334 60.672v-26.581333H588.8l-6.528 22.4h-0.469333l-6.997334-22.4h-5.12v26.581333h3.242667v-21.930667l7.466667 21.930667h2.816l7.466666-22.4v22.4h3.242667z m-251.648 176.469333c7.466667-3.285333 15.402667-9.344 20.992-15.872a25.301333 25.301333 0 0 0 5.12-16.341333l0.981333-41.984a196.266667 196.266667 0 0 0-27.093333 15.36c-2.346667 1.408-4.224 3.285333-6.058667 4.693333-14.037333 11.648-21.034667 24.746667-21.034667 36.864 0 12.16 6.528 20.053333 15.872 20.053334a28.16 28.16 0 0 0 11.221334-2.773334z m0-74.666666c7.936-4.693333 17.28-9.386667 27.093333-13.568v-33.621334c0-22.869333-5.12-32.682667-17.749333-32.682666a30.037333 30.037333 0 0 0-9.344 1.408c-12.586667 4.693333-21.930667 17.749333-25.173334 36.906666l-1.450666 6.997334c-1.877333 8.405333-3.712 10.24-10.24 10.24h-6.570667c-5.12 0-7.936-2.773333-7.936-7.466667 0-7.936 7.936-27.050667 16.810667-37.802667 9.386667-11.178667 21.504-19.157333 34.56-22.869333 5.12-1.408 10.752-2.346667 16.341333-2.346667 13.994667 0 20.992 1.877333 27.093333 6.997334 8.832 7.466667 11.178667 14.506667 11.178667 37.376v2.773333L395.989333 913.066667c0 27.52 0 27.52 0.938667 31.274666 0.469333 3.712 3.285333 7.466667 6.997333 7.936 6.997333 0.938667 9.813333-1.877333 12.629334-6.997333 2.304-6.101333 9.813333-6.101333 8.874666 0.426667a30.250667 30.250667 0 0 1-8.405333 19.626666c-7.466667 8.405333-17.749333 10.752-28.032 10.752-13.994667 0-20.522667-8.874667-20.522667-27.562666a82.688 82.688 0 0 1-26.154666 21.461333 66.816 66.816 0 0 1-27.52 6.997333c-18.218667 0-30.378667-13.056-30.378667-33.109333 0-23.338667 20.522667-47.616 57.898667-68.181333z m203.093333-125.141334h8.832v23.338667h3.285333v-23.338667h8.874667v-3.242666h-21.034667v3.242666z m7.424 192.341334c-8.405333 11.648-20.522667 21.461333-40.106667 20.992-38.314667-1.408-53.717333-42.922667-53.717333-89.173334 0-45.226667 20.053333-78.421333 47.146667-79.786666a27.946667 27.946667 0 0 1 22.4 8.832c6.101333 5.632 10.752 13.098667 13.098666 19.157333 4.650667 13.525333 17.706667 23.338667 15.872-17.28-0.938667-14.933333-19.157333-25.685333-39.68-25.173333-51.84 1.365333-87.765333 41.984-87.765333 105.472 0 55.552 27.52 92.416 68.608 92.416 15.872 0 34.986667-0.896 48.085333-11.178667 10.24-7.466667 13.056-11.221333 14.933334-19.157333 2.346667-10.24-6.058667-8.874667-8.874667-5.12z" fill="#000000" p-id="33897"></path><path d="M741.930667 703.402667c-66.304 1.408-113.92 58.794667-113.92 139.093333 0 83.114667 46.208 140.544 112.042666 140.544h1.877334c33.621333-0.469333 59.733333-13.994667 82.133333-42.965333 21.504-27.050667 30.805333-56.96 30.805333-98.005334 0-37.845333-7.936-67.242667-23.765333-91.52-20.053333-30.336-50.901333-47.146667-87.338667-47.146666h-1.834666z m0 265.642666c-24.32 0-40.618667-9.386667-56.490667-32.682666-16.810667-24.746667-24.32-53.717333-24.32-93.397334 0-73.258667 32.725333-124.16 80.810667-125.568h1.834666c21.973333 0 39.68 9.813333 54.186667 29.866667 16.768 22.442667 24.746667 53.717333 24.746667 94.805333 0 37.802667-6.570667 66.730667-21.504 90.069334-15.872 25.685333-33.621333 36.906667-59.306667 36.906666z m253.013333-249.770666c-14.506667-9.344-27.989333-13.056-46.677333-13.056-42.026667 0-73.301333 31.274667-73.301334 74.666666 0 29.866667 13.525333 48.085333 47.616 65.365334l21.930667 10.282666c26.624 13.525333 37.802667 28.458667 37.802667 52.736 0 33.152-20.053333 56.490667-47.616 56.490667-14.464 0-27.050667-5.589333-34.986667-16.341333-6.997333-8.832-12.629333-22.869333-14.933333-34.56l-0.938667-8.832c-1.408-7.936-2.816-10.282667-7.466667-10.282667-4.224 0-6.528 3.712-6.528 11.221333l1.365334 57.856a109.653333 109.653333 0 0 0 58.368 15.872c27.562667 0 48.085333-9.344 62.08-28.458666 11.221333-14.933333 17.28-33.621333 17.28-53.674667 0-34.56-13.525333-55.552-45.269334-71.893333l-14.506666-7.466667c-26.112-13.098667-31.701333-16.810667-38.272-24.32-6.528-7.424-9.813333-17.237333-9.813334-29.397333 0-26.112 16.853333-44.8 39.253334-44.8 21.930667 0 38.741333 16.341333 42.453333 40.618666l0.938667 6.528c0.469333 5.12 2.346667 7.466667 6.101333 7.466667 4.693333 0 5.589333-0.426667 6.528-8.405333v-0.938667l-1.408-46.677333z" fill="#00ACEC" p-id="33898"></path></svg>