<?xml version="1.0" standalone="no"?><!DOCTYPE svg PUBLIC "-//W3C//DTD SVG 1.1//EN" "http://www.w3.org/Graphics/SVG/1.1/DTD/svg11.dtd"><svg t="1767684444933" class="icon" viewBox="0 0 1024 1024" version="1.1" xmlns="http://www.w3.org/2000/svg" p-id="34903" xmlns:xlink="http://www.w3.org/1999/xlink" width="128" height="128"><path d="M510.336 64h2.08a333.376 333.376 0 0 1 31.104 16.896l347.456 199.872a25.344 25.344 0 0 1 13.248 25.216c-0.256 140.448 0 280.864-0.16 421.248a26.016 26.016 0 0 1-11.392 16.224q-184.736 106.368-369.504 212.608a18.784 18.784 0 0 1-21.024 1.184q-184.96-106.048-369.568-212.48a22.4 22.4 0 0 1-12.8-21.312V302.24a22.176 22.176 0 0 1 12.384-21.44q173.504-99.776 347.008-199.68c10.304-5.888 20.416-12.128 31.168-17.12" fill="#019639" p-id="34904"></path><path d="M280.544 337.216v347.488a48.288 48.288 0 0 0 13.664 34.784 52.704 52.704 0 0 0 65.92 6.592 50.048 50.048 0 0 0 21.92-41.376c0-83.84-0.16-167.68 0-251.52q114.656 137.28 229.792 274.176a90.656 90.656 0 0 0 83.2 25.024 49.952 49.952 0 0 0 40.032-43.872q0.256-177.312 0-354.592a50.624 50.624 0 0 0-100.864 0c0 85.184-0.512 170.272 0 255.424-75.072-88.512-149.216-177.792-224-266.624a90.144 90.144 0 0 0-84.768-33.664 50.528 50.528 0 0 0-44.896 48.16z" fill="#FFFFFF" p-id="34905"></path></svg>