<?xml version="1.0" standalone="no"?><!DOCTYPE svg PUBLIC "-//W3C//DTD SVG 1.1//EN" "http://www.w3.org/Graphics/SVG/1.1/DTD/svg11.dtd"><svg t="1767684147006" class="icon" viewBox="0 0 1024 1024" version="1.1" xmlns="http://www.w3.org/2000/svg" p-id="7116" xmlns:xlink="http://www.w3.org/1999/xlink" width="128" height="128"><path d="M572.8 579.2h156.8l179.2 49.6 108.8-219.2-299.2-248-145.6 417.6z" fill="#07C3F2" p-id="7117"></path><path d="M438.4 0l-376 156.8L0 819.2l206.4-22.4 147.2-62.4 4.8-105.6L416 323.2 668.8 152z" fill="#21D789" p-id="7118"></path><path d="M288 388.8L0 819.2 350.4 1024l94.4-110.4L416 323.2z" fill="#FCF84A" p-id="7119"></path><path d="M761.6 0L448 280h355.2z" fill="#21D789" p-id="7120"></path><path d="M464 280l-48 43.2-120 582.4 416 116.8 312-107.2L896 432l-201.6 78.4 24-254.4z" fill="#FCF84A" p-id="7121"></path><path d="M192 832h640V192H192z" p-id="7122"></path><path d="M256 752h240v-40H256v40z m103.68-342.848A41.152 41.152 0 0 0 405.44 368c0-26.88-17.92-41.152-46.848-41.152h-44.8v83.072l45.888-0.832zM256 272h107.392C426.112 272 464 310.4 464 366.08v0.832c0 62.848-47.168 96-106.24 96h-44.032V544H256V272z m227.072 136.96A134.72 134.72 0 0 1 621.44 271.808c39.04-1.92 77.12 12.992 104.448 40.96l-37.12 42.88a97.92 97.92 0 0 0-67.84-29.888A78.592 78.592 0 0 0 544 407.488a78.528 78.528 0 0 0 76.8 83.392 96 96 0 0 0 69.76-31.04l37.12 37.632a135.872 135.872 0 0 1-108.8 48 134.08 134.08 0 0 1-136-136.512" fill="#FFFFFF" p-id="7123"></path></svg>