<?xml version="1.0" standalone="no"?><!DOCTYPE svg PUBLIC "-//W3C//DTD SVG 1.1//EN" "http://www.w3.org/Graphics/SVG/1.1/DTD/svg11.dtd"><svg t="1767684525606" class="icon" viewBox="0 0 1024 1024" version="1.1" xmlns="http://www.w3.org/2000/svg" p-id="45602" xmlns:xlink="http://www.w3.org/1999/xlink" width="128" height="128"><path d="M894.5454904 567.14525911a161.48370043 161.48370043 0 0 0-62.01013687-100.59767845 24.32047326 24.32047326 0 0 1-11.26942859-15.78709789 152.75236773 152.75236773 0 0 0-16.96777204-83.71474527c-22.01568421-41.12563747-69.81531202-64.43511429-69.81531201-64.4351143s-1.09583529-5.40140743 9.36055422-6.55380194a31.23484036 31.23484036 0 0 0 20.64412265-12.44303283c2.75019306-3.85309823 0-8.53337535 5.5003861-10.18773312a34.64253457 34.64253457 0 0 0 20.36839635-10.46345944c6.05183869-7.71326638 7.98192276-18.17672579 11.5592947-20.92691882s15.95677561-7.98899266 20.91277903-19.00390469-2.47446676-12.94499607 8.25764905-20.37546624a24.74466755 24.74466755 0 0 0 11.31184802-20.92691885c0.2757263-4.12882453-2.47446676-6.85073796 0-10.44931961a43.54354498 43.54354498 0 0 0 12.11074729-19.56949709 25.19714147 25.19714147 0 0 0-3.02591933-15.69518912c0-2.20581036 5.2246598-4.9489335 8.80203173-11.8420909a22.10759298 22.10759298 0 0 0 0-18.72817838c-1.92301417-4.68027712-5.5003861-7.43754007-4.94893349-10.73918572s8.80203174-17.07382062-3.03298926-30.29454298a30.99446357 30.99446357 0 0 0-28.89470181-8.53337535c-2.19874046-0.5514526-11.31184801-11.31184801-23.11858939-12.94499609s-21.46423163-0.5514526-24.49015096-1.65435777-5.23172972-7.71326638-15.13666663-8.53337535-15.68811923 0.5514526-17.34247701 0a30.82478587 30.82478587 0 0 0-20.09267005-9.08482793 61.21830752 61.21830752 0 0 0-20.63705273 5.78318229 26.78787009 26.78787009 0 0 0-17.06675071-7.71326636c-11.31184801-0.2757263-19.26549116 7.71326638-23.39431569 7.98899265s-11.55222479-4.68027712-21.20971505-2.75726295a43.31730802 43.31730802 0 0 0-15.9638455 9.08482796c-2.75019306 0.82717888-12.65512997-2.48153666-20.91277904-0.27572631a43.66373338 43.66373338 0 0 0-18.71403856 14.04083136 13.27728161 13.27728161 0 0 1-14.04083139 4.40455082c-5.5003861-1.37863148-27.61504899 12.66926978-45.31809112 41.30945499s-16.60013698 41.57811138-16.60013698 41.57811139H504.93009499s1.10290518-12.94499607-16.60013697-41.57811139-39.81770502-42.68101655-45.31809116-41.30945499a13.27021171 13.27021171 0 0 1-14.03376144-4.40455082 43.67787317 43.67787317 0 0 0-18.71403857-14.04083136c-8.25764905-2.20581036-18.16258598 1.10290518-20.91984893 0.27572631a43.23246916 43.23246916 0 0 0-15.95677563-9.04240854c-9.63628053-1.93008406-17.06675071 3.02591934-21.20971503 2.75726297s-12.1107473-8.26471897-23.3943157-7.98899267a26.75959047 26.75959047 0 0 0-17.0596808 7.71326636 61.23951723 61.23951723 0 0 0-20.64412263-5.78318229 30.83185577 30.83185577 0 0 0-20.09267005 9.08482794c-1.65435778 0.5514526-7.43047017-0.82717888-17.34247701 0s-12.1107473 7.43754007-15.13666664 8.53337535-12.66219987 0-24.49722087 1.65435778-20.91984893 12.39354349-23.11858939 12.94499608a30.99446357 30.99446357 0 0 0-28.85228236 8.51216563c-11.83502099 13.22072237-3.57737195 26.98582743-3.02591935 30.29454298s-3.02591934 6.05890861-4.94893351 10.73918573a22.11466288 22.11466288 0 0 0 0 18.72817839c3.57737195 6.88608749 8.80910165 9.63628053 8.80910164 11.84209089a25.16179195 25.16179195 0 0 0-3.02591934 15.69518913 43.49405564 43.49405564 0 0 0 12.08953757 19.56242718c2.47446676 3.59858164-0.2757263 6.32049508 0 10.4493196a24.74466755 24.74466755 0 0 0 11.31184803 20.92691884c10.73211581 7.43754007 3.30164564 9.36055423 8.25764905 20.37546625s17.34247699 16.26078154 20.91984895 19.00390468 5.507456 13.22072237 11.5592947 20.92691885a34.64253457 34.64253457 0 0 0 20.36839634 10.4634594c5.507456 1.65435778 2.75019306 6.36291451 5.50745601 10.18773315a31.20656074 31.20656074 0 0 0 20.64412263 12.44303281c10.45638951 1.15239452 9.35348433 6.55380194 9.35348433 6.55380196s-47.79255789 23.33068654-69.81531201 64.43511429a152.79478717 152.79478717 0 0 0-16.96777204 83.71474526 24.30633343 24.30633343 0 0 1-11.26235869 15.78709791 161.47663052 161.47663052 0 0 0-62.08083592 100.58353863 141.10116427 141.10116427 0 0 0 32.19634743 114.95665552c11.31184801 11.38254708 7.77689552 19.79573404 11.09975087 34.50820638s16.51529811 35.2505464 17.97876846 40.39036734a167.76177607 167.76177607 0 0 0 12.01883853 48.07535409c12.01883853 30.47836052 55.8522496 70.5010928 75.70454288 77.83965421s32.66296116 20.19871862 54.31101032 33.36995167 53.94337524 23.54278369 58.68021162 27.2191343 27.89077527 27.53728002 56.14211572 40.01566239a264.91641077 264.91641077 0 0 0 69.28506912 16.15473295 264.88106126 264.88106126 0 0 0 69.28506914-16.15473295c28.27962006-12.47838235 51.37699974-36.34638169 56.14211573-40.01566239s37.06751199-14.04790125 58.71556113-27.2191343 34.49406656-26.02432035 54.31101032-33.36995167 63.69984417-47.36836359 75.69747298-77.83965421a167.60623817 167.60623817 0 0 0 12.01883853-48.07535409c1.47054025-5.13982094 14.68419271-25.69910474 17.98583836-40.39036734s-0.19088743-23.12565931 11.09268097-34.50820638a141.07288464 141.07288464 0 0 0 32.14685809-114.95665552z" fill="" p-id="45603"></path><path d="M301.74809478 48.15060193c8.6040744 3.5349525 33.15078462 12.93085628 36.84127503 14.05497118l3.49253308-13.28435152c5.81853183 3.796539 26.01018054 16.39510973 29.60876221 18.38175302l6.47603299-13.43281952c5.06205199 4.77925579 22.03689393 19.01804449 24.92141518 20.89156933a70.37383452 70.37383452 0 0 0 6.29221547-14.89628986l29.79964962 31.66610454 7.77689551-13.72268562c8.42025687 11.7077627 17.12330994 22.10759298 23.8326498 33.63153814a104.92446032 104.92446032 0 0 1 17.30712748 59.02663697 46.27959823 46.27959823 0 0 1-28.30082977 39.64802731 10.35034094 10.35034094 0 0 1-8.93635994-1.87352483c-52.96772836-42.27803199-113.21745889-71.17980368-176.59208746-94.36909213a14.06911098 14.06911098 0 0 0-9.65042033-0.37470497c2.36841819 1.49881986 4.68027712 3.08954849 7.06990503 4.44697026A739.45550523 739.45550523 0 0 1 410.61049219 210.8220464a237.54880848 237.54880848 0 0 1 20.1492293 19.39274945A10.97956249 10.97956249 0 0 1 433.12813966 243.34360946a60.42647814 60.42647814 0 0 1-30.00467687 33.12250499A183.06812043 183.06812043 0 0 1 320.99237622 293.53993506l8.22936945-12.50666196-49.4893351-7.16888368 12.90964655-10.39983028-44.66765987-15.17201616 15.7941678-7.49409932L220.71991343 216.47797041l17.49801491-5.65592401-34.18299075-26.02432035a63.74933351 63.74933351 0 0 0 16.31734078-7.40219055l-29.69360108-24.59619955a183.55594387 183.55594387 0 0 1 18.82008716-6.22858631 322.14022195 322.14022195 0 0 0-28.51999682-30.54198965l22.36917946-1.03220614-15.9355659-35.55455231h43.88997033L220.01292291 63.84579106c14.09032069 1.92301417 46.44220604 5.33777829 50.50740143 5.38726763l-1.37156157-13.48937876a351.47325786 351.47325786 0 0 0 36.13428453 7.02748558 95.59925559 95.59925559 0 0 1-3.53495252-14.61349367m410.64836284 0c-8.65356373 3.5349525-33.22855357 12.93085628-36.84127503 14.05497117l-3.50667287-13.29142142c-5.81853183 3.796539-26.01018054 16.39510973-29.60169231 18.38175302l-6.53259223-13.43281952q-12.01883853 10.91593334-24.87192584 20.89156933a70.52937243 70.52937243 0 0 1-6.29221546-14.89628986l-29.79257973 31.66610454-7.77689551-13.72268562c-8.42025687 11.7077627-17.12330994 22.10759298-23.88213914 33.63153814a104.91032049 104.91032049 0 0 0-17.30712747 59.02663697 46.32908755 46.32908755 0 0 0 28.37152881 39.67630694 10.23015254 10.23015254 0 0 0 8.89394051-1.87352484c53.02428761-42.29924169 113.26694822-71.2010134 176.64157678-94.39030185a14.05497118 14.05497118 0 0 1 9.64335044-0.37470495c-2.36134827 1.49881986-4.72976645 3.08954849-7.14060407 4.44697025A739.20098865 739.20098865 0 0 0 603.51992042 210.8220464a237.54880848 237.54880848 0 0 0-20.14215941 19.39274945 10.97956249 10.97956249 0 0 0-2.36841817 13.12881361 60.40526845 60.40526845 0 0 0 30.0329565 33.11543509 183.49231473 183.49231473 0 0 0 82.05331759 17.08089051l-8.17988011-12.50666196 49.48933511-7.16888368-12.9591359-10.39983028 44.6888696-15.12959673-15.79416781-7.49409932L793.38221956 216.47797041l-17.4980149-5.65592401 34.23954997-26.04553007a65.20573393 65.20573393 0 0 1-16.3597602-7.40219055l29.69360107-24.59619954a183.48524482 183.48524482 0 0 0-18.82715707-6.22858633 331.47956649 331.47956649 0 0 1 28.56948617-30.54198965l-22.36917947-1.03220613 15.88607657-35.55455232h-43.83341109l11.25528878-15.59621046c-14.13981003 1.92301417-46.44220604 5.33777829-50.50740141 5.38726762l1.32207223-13.48937876a357.88566171 357.88566171 0 0 1-36.05651556 7.02748558 95.57804589 95.57804589 0 0 0 3.5349525-14.61349366" fill="#7CC331" p-id="45604"></path><path d="M393.72755903 410.02369008c47.48148208 0.16967772 86.5851267 31.94183085 92.48849739 84.30154739 6.27807566 55.33614655-30.64096833 113.03364137-83.735955 133.14045122-65.41783109 24.64568887-128.93385775-15.62449008-132.263783-83.95512204-3.04712907-63.28271978 45.67158638-122.30935675 109.42798983-132.35569177 4.65906741-0.7069905 9.37469405-0.78475946 14.08325078-1.15239452M378.78177982 804.69406757c1.04634594 37.67552381-17.03140117 56.77133727-51.3345803 51.31337061a170.38471083 170.38471083 0 0 1-17.46266539-3.60565158C243.34360946 834.45836768 200.84641043 768.72239087 213.31772287 703.07125292c4.84995485-25.69910474 23.33068654-38.00073946 50.00543816-32.8184991a123.51831051 123.51831051 0 0 1 62.99285368 36.43122055 203.06888172 203.06888172 0 0 1 40.05808181 55.06042024 130.68719419 130.68719419 0 0 1 12.37233377 42.9920924m-163.62588163-166.61645147a72.4735963 72.4735963 0 0 1-13.31970105 19.79573405c-6.94971664 7.53651875-12.72582902 6.84366804-19.79573405-0.70699051a115.74141498 115.74141498 0 0 1 8.63942393-166.77198937 121.07919327 121.07919327 0 0 1 13.249002-10.10996417c13.43281952-8.78082203 23.33068654-7.16888368 25.69203481 8.78082202 9.94735635 66.8459519-0.38177487 116.13025975-14.46502564 148.99824818m9.70697956-210.0963673c0.62215164-76.142877 75.64798365-134.61806137 152.20091515-118.67542557 10.18066322 2.1209715 12.01883853 4.24194301 5.89630079 12.72582902a209.44593603 209.44593603 0 0 1-30.64096833 35.59697176c-24.21442467 21.26627429-49.43277586 41.47206281-75.16723011 60.97793074a188.76646387 188.76646387 0 0 1-35.96460681 19.60484659c-14.03376145 6.36291451-16.36683011 4.53180912-16.22543201-10.26550207m385.45829129-76.74381892c0 32.08322896-66.8459519 50.76191799-103.22061322 50.76191799S403.83045328 383.32772875 403.83045328 351.21622017s46.24424869-65.41783109 103.22061322-65.41783109 103.22061322 33.33460214 103.22061319 65.41783109m-212.09715042 542.79195745c0-28.38566863 72.45945648-41.14684718 108.94723628-41.14684718s108.87653721 12.76117855 108.8765372 41.14684718-51.85775328 61.6212921-108.94723625 61.6212921-108.94723628-33.19320404-108.94723628-61.57887266m222.99187405-173.73584582c0 56.26937401-56.23402447 101.84905163-114.03756788 101.84905162s-114.03756788-45.57967763-114.03756787-101.84905162 56.28351381-101.8066322 114.03756787-101.8066322 114.08705722 45.58674753 114.08705722 101.84198173m-0.62215165-310.32641069c-47.53097141 0.18381754-86.59219662 31.94183085-92.53798672 84.3227571-6.23565622 55.33614655 30.64096833 113.03364137 83.77837442 133.14045122 65.41783109 24.64568887 128.93385775-15.62449008 132.26378299-83.95512204 3.04712907-63.28271978-45.67158638-122.30935675-109.42091989-132.35569176-4.66613731-0.7069905-9.37469405-0.78475946-14.0832508-1.15239452m14.88921996 394.66330759c-0.99685661 37.67552381 17.08089052 56.77133727 51.38406964 51.3133706a170.33522149 170.33522149 0 0 0 17.46266539-3.60565157c66.60557514-17.93634902 109.13812371-83.67232583 96.67388117-149.32346378-4.89944418-25.69910474-23.40845551-38.00073946-50.0549275-32.8184991a123.18602496 123.18602496 0 0 0-62.92215463 36.43122055 203.21027981 203.21027981 0 0 0-40.05808181 55.06042024 129.85294539 129.85294539 0 0 0-12.41475321 42.9920924m163.55518259-166.61645147a74.29763179 74.29763179 0 0 0 13.36919039 19.79573405c6.94971664 7.53651875 12.72582902 6.84366804 19.79573405-0.70699051a115.74141498 115.74141498 0 0 0-8.63942394-166.77198937 121.17110204 121.17110204 0 0 0-13.24900199-10.10996417c-13.43281952-8.78082203-23.33068654-7.16888368-25.69203483 8.78082202-9.98977578 66.8459519 0.38177487 116.13025975 14.46502567 148.99824818m-9.75646893-210.11050712c-0.52317298-76.09338767-75.64798365-134.61806137-152.10193647-118.62593623-10.18066322 2.1209715-12.01883853 4.24194301-5.89630077 12.72582904a211.47499877 211.47499877 0 0 0 30.591479 35.59697174c24.26391401 21.26627429 49.48933509 41.46499291 75.1743 60.97793074a190.18044487 190.18044487 0 0 0 35.96460681 19.60484661c14.08325079 6.36291451 16.36683011 4.53180912 16.26078153-10.26550208" fill="#DA0039" p-id="45605"></path></svg>