<?xml version="1.0" standalone="no"?><!DOCTYPE svg PUBLIC "-//W3C//DTD SVG 1.1//EN" "http://www.w3.org/Graphics/SVG/1.1/DTD/svg11.dtd"><svg t="1767595135874" class="icon" viewBox="0 0 1024 1024" version="1.1" xmlns="http://www.w3.org/2000/svg" p-id="14842" xmlns:xlink="http://www.w3.org/1999/xlink" width="128" height="128"><path d="M80.064 530.641l286.3-293.213a197.909 197.909 0 0 1 283.194 0l3.107 3.224a202.958 202.958 0 0 1 0 283.62l-286.3 293.174a197.909 197.909 0 0 1-283.194 0l-3.107-3.184a202.958 202.958 0 0 1 0-283.62z" fill="#12D2AC" p-id="14843"></path><path d="M649.79 237.428l283.194 290.029a207.54 207.54 0 0 1 0 289.99 197.909 197.909 0 0 1-283.193 0l-283.194-289.99a207.54 207.54 0 0 1 0-289.99 197.909 197.909 0 0 1 283.194 0z" fill="#165DFF" p-id="14844"></path><path d="M653.053 241.001l137.985 141.286-283.193 289.99-283.194-289.99 137.985-141.286a202.958 202.958 0 0 1 290.417 0z" fill="#165DFF" p-id="14845"></path></svg>